<?xml version="1.0" standalone="no"?>
<!DOCTYPE svg PUBLIC "-//W3C//DTD SVG 20010904//EN"
 "http://www.w3.org/TR/2001/REC-SVG-20010904/DTD/svg10.dtd">
<svg version="1.0" xmlns="http://www.w3.org/2000/svg"
 width="256.000000pt" height="256.000000pt" viewBox="0 0 256.000000 256.000000"
 preserveAspectRatio="xMidYMid meet">
<metadata>
Created by potrace 1.14, written by Peter Selinger 2001-2017
</metadata>
<g transform="translate(0.000000,256.000000) scale(0.100000,-0.100000)"
fill="#000000" stroke="none">
<path d="M1090 2300 c-112 -23 -168 -42 -268 -92 -98 -49 -118 -68 -76 -69 95
-2 291 -57 442 -124 l76 -33 48 24 c109 55 392 133 501 137 l37 2 -22 17 c-59
44 -208 106 -328 135 -97 23 -305 25 -410 3z"/>
<path d="M537 2094 c-1 -1 -47 -5 -102 -8 -55 -4 -101 -9 -103 -10 -1 -2 68
-27 155 -56 264 -88 390 -155 508 -275 79 -79 102 -107 153 -186 l43 -66 88
-2 89 -2 23 38 c101 168 251 308 419 390 76 37 300 120 373 138 37 10 34 25
-5 26 -18 0 -42 3 -53 5 -33 7 -246 8 -311 1 -34 -4 -94 -14 -135 -23 -41 -8
-82 -17 -93 -19 -49 -11 -140 -39 -227 -71 -108 -40 -90 -41 -267 20 -126 44
-276 82 -357 92 -57 6 -193 12 -198 8z"/>
<path d="M457 1913 c-105 -139 -168 -281 -201 -453 -14 -74 -15 -289 -2 -355
48 -235 136 -403 293 -558 160 -159 341 -253 559 -291 78 -14 297 -15 359 -2
222 48 396 140 545 288 155 154 258 350 295 566 13 75 14 289 1 342 -3 14 -8
39 -12 55 -12 64 -49 163 -89 245 -43 85 -128 208 -150 216 -12 5 -156 -55
-207 -86 l-29 -18 26 -6 c15 -4 44 -18 65 -31 153 -97 211 -293 134 -455 -39
-81 -89 -132 -173 -173 -58 -28 -75 -32 -151 -32 -74 0 -93 4 -150 31 -92 43
-155 112 -189 206 -9 25 -14 27 -86 30 -82 3 -115 -4 -115 -24 0 -7 -10 -33
-23 -56 -77 -145 -257 -223 -411 -178 -105 31 -178 92 -229 191 -53 103 -46
244 19 345 42 66 102 116 169 142 l39 15 -49 26 c-56 28 -174 77 -186 77 -4 0
-27 -26 -52 -57z m842 -655 c17 -58 66 -129 107 -156 l34 -22 -77 -115 c-42
-63 -79 -115 -83 -115 -4 0 -41 51 -83 114 l-75 113 43 42 c47 46 90 111 100
154 10 38 20 34 34 -15z"/>
<path d="M795 1631 c-45 -20 -70 -60 -70 -112 0 -42 5 -53 33 -81 27 -28 40
-33 80 -33 110 0 161 120 84 198 -31 31 -91 44 -127 28z"/>
<path d="M1675 1631 c-74 -33 -96 -133 -41 -190 77 -80 201 -30 201 81 0 40
-5 53 -31 79 -33 33 -92 46 -129 30z"/>
</g>
</svg>
